<svg width="19" height="15" viewBox="0 0 19 15" fill="none" xmlns="http://www.w3.org/2000/svg">
<path fill-rule="evenodd" clip-rule="evenodd" d="M5.3452 0.149626C8.16302 -0.0629455 10.9933 -0.0489981 13.8089 0.191334L15.5058 0.336178C16.7876 0.445587 17.8278 1.41923 18.0228 2.69197L18.1298 3.39105C18.4931 5.76332 18.4592 8.17958 18.0294 10.5407C17.8173 11.7057 16.8034 12.5523 15.6203 12.5523H6.23937C6.02355 12.5523 5.81109 12.6058 5.62098 12.7081L1.53397 14.9065C1.29106 15.0372 0.997426 15.0305 0.760737 14.8888C0.524049 14.7472 0.379135 14.4915 0.379135 14.2155V5.30626C0.379135 2.60901 2.45609 0.367576 5.14326 0.16486L5.3452 0.149626ZM5.34317 5.32436C4.62171 5.32436 4.03685 5.90976 4.03685 6.63188C4.03685 7.354 4.62171 7.9394 5.34317 7.9394C6.06464 7.9394 6.6495 7.354 6.6495 6.63188C6.6495 5.90976 6.06464 5.32436 5.34317 5.32436ZM9.52342 5.32436C8.80195 5.32436 8.21709 5.90976 8.21709 6.63188C8.21709 7.354 8.80195 7.9394 9.52342 7.9394C10.2449 7.9394 10.8297 7.354 10.8297 6.63188C10.8297 5.90976 10.2449 5.32436 9.52342 5.32436ZM12.3973 6.63188C12.3973 5.90976 12.9822 5.32436 13.7037 5.32436C14.4251 5.32436 15.01 5.90976 15.01 6.63188C15.01 7.354 14.4251 7.9394 13.7037 7.9394C12.9822 7.9394 12.3973 7.354 12.3973 6.63188Z" fill="black"/>
</svg>
