<svg width="18" height="14" viewBox="0 0 18 14" fill="none" xmlns="http://www.w3.org/2000/svg">
<path d="M4.66261 0.732619C7.48301 0.489884 10.3194 0.489884 13.1398 0.732619L14.4986 0.849565C15.4032 0.927417 16.1779 1.46161 16.5794 2.22572C16.6307 2.32348 16.5922 2.44183 16.4976 2.49983L10.8598 5.9552C9.65063 6.69628 8.12599 6.71183 6.90168 5.99557L1.22619 2.67521C1.1345 2.62157 1.09241 2.51115 1.13373 2.41396C1.50097 1.55026 2.32662 0.933664 3.30377 0.849565L4.66261 0.732619Z" fill="black"/>
<path d="M1.12912 4.17048C0.988787 4.08839 0.809734 4.17673 0.793376 4.33729C0.565077 6.57824 0.620332 8.8404 0.95914 11.0711C1.13775 12.2471 2.10715 13.1486 3.30378 13.2516L4.66261 13.3685C7.48301 13.6113 10.3194 13.6113 13.1398 13.3685L14.4986 13.2516C15.6952 13.1486 16.6646 12.2471 16.8432 11.0711C17.1919 8.7754 17.2403 6.44637 16.9883 4.14144C16.9706 3.97974 16.7886 3.89302 16.6489 3.97863L11.5702 7.09134C9.93426 8.09397 7.8715 8.11501 6.21508 7.14595L1.12912 4.17048Z" fill="black"/>
</svg>
