<svg width="23" height="28" viewBox="0 0 23 28" fill="none" xmlns="http://www.w3.org/2000/svg">
<path d="M20.6967 2.20264C21.0725 1.8247 21.0725 1.21195 20.6967 0.834018C20.3209 0.456084 19.7115 0.456084 19.3357 0.834018L18.4284 1.74643C17.7927 2.38571 17.8251 3.3791 18.3798 4.00146C22.1041 8.18057 21.969 14.6093 17.9747 18.6261C15.9088 20.7036 13.2012 21.7429 10.4934 21.744L10.4893 21.744L10.4854 21.744C7.96047 21.7432 5.4359 20.8396 3.43166 19.0334C2.81277 18.4757 1.82491 18.443 1.1892 19.0823L0.28187 19.9947C-0.0939566 20.3726 -0.0939567 20.9854 0.28187 21.3633C0.657696 21.7412 1.26703 21.7412 1.64286 21.3633L2.34917 20.653C4.4276 22.4474 6.95257 23.4439 9.52692 23.6424V25.615H7.2814C6.7499 25.615 6.31904 26.0483 6.31904 26.5828C6.31904 27.1173 6.7499 27.5506 7.2814 27.5506H13.6972C14.2287 27.5506 14.6595 27.1173 14.6595 26.5828C14.6595 26.0483 14.2287 25.615 13.6972 25.615H11.4516V23.6425C14.3255 23.4209 17.1377 22.205 19.3357 19.9947C23.9925 15.3118 24.2107 7.85632 19.9904 2.9129L20.6967 2.20264Z" fill="black"/>
<path fill-rule="evenodd" clip-rule="evenodd" d="M2.14879 11.0987C2.14879 6.46651 5.88296 2.71141 10.4893 2.71141C15.0956 2.71141 18.8298 6.46651 18.8298 11.0987C18.8298 15.7308 15.0956 19.4859 10.4893 19.4859C5.88296 19.4859 2.14879 15.7308 2.14879 11.0987ZM13.0556 6.25986C11.1068 6.25986 9.52692 7.84856 9.52692 9.80831C9.52692 11.7681 11.1068 13.3568 13.0556 13.3568C15.0044 13.3568 16.5843 11.7681 16.5843 9.80831C16.5843 7.84856 15.0044 6.25986 13.0556 6.25986ZM4.39431 14.3245C4.39431 13.4337 5.11242 12.7116 5.99825 12.7116C6.88408 12.7116 7.60219 13.4337 7.60219 14.3245C7.60219 15.2153 6.88408 15.9375 5.99825 15.9375C5.11242 15.9375 4.39431 15.2153 4.39431 14.3245Z" fill="black"/>
</svg>
