<svg width="21" height="20" viewBox="0 0 21 20" fill="none" xmlns="http://www.w3.org/2000/svg">
<path fill-rule="evenodd" clip-rule="evenodd" d="M2.09308 10C2.09308 5.42393 5.80197 1.71429 10.3771 1.71429C14.9523 1.71429 18.6612 5.42393 18.6612 10C18.6612 10.0385 18.6637 10.0764 18.6686 10.1135C18.665 10.1493 18.6635 10.1858 18.6644 10.2227C18.6714 10.5137 18.6341 10.9651 18.5386 11.3964C18.4345 11.8664 18.299 12.1365 18.2196 12.2197C17.8747 12.5818 17.4001 12.7919 16.9002 12.804C16.4003 12.816 15.9161 12.6289 15.5541 12.2839C15.3175 12.0583 15.2496 11.7272 15.2311 10.9579L15.0992 5.47431C15.0878 5.00106 14.695 4.62664 14.2218 4.63803C13.7487 4.64942 13.3743 5.0423 13.3857 5.51555L13.4048 6.30715C12.5808 5.63054 11.5264 5.2244 10.3771 5.2244C7.7402 5.2244 5.60256 7.36247 5.60256 9.99991C5.60256 12.6374 7.7402 14.7754 10.3771 14.7754C11.8333 14.7754 13.1372 14.1234 14.013 13.0953C14.1112 13.2448 14.2293 13.3892 14.3717 13.5249C15.0628 14.1836 15.9871 14.5407 16.9414 14.5178C17.8957 14.4948 18.8018 14.0936 19.4604 13.4024C19.8828 12.959 20.0966 12.2882 20.212 11.7672C20.3359 11.2075 20.3883 10.6178 20.3778 10.1815C20.3771 10.15 20.3746 10.1191 20.3706 10.0886C20.3736 10.0595 20.3751 10.0299 20.3751 10C20.3751 4.47715 15.8989 0 10.3771 0C4.85539 0 0.379135 4.47715 0.379135 10C0.379135 15.5228 4.85539 20 10.3771 20C12.7115 20 14.8612 19.1987 16.5629 17.8568C16.9345 17.5637 16.9983 17.0247 16.7052 16.653C16.4122 16.2812 15.8733 16.2175 15.5017 16.5106C14.0916 17.6226 12.313 18.2857 10.3771 18.2857C5.80197 18.2857 2.09308 14.5761 2.09308 10ZM10.3771 6.93869C8.68678 6.93869 7.3165 8.30924 7.3165 9.99991C7.3165 11.6906 8.68678 13.0611 10.3771 13.0611C12.0674 13.0611 13.4377 11.6906 13.4377 9.99991C13.4377 8.30924 12.0674 6.93869 10.3771 6.93869Z" fill="black"/>
</svg>
