<svg width="16" height="19" viewBox="0 0 16 19" fill="none" xmlns="http://www.w3.org/2000/svg">
<path d="M5.03023 8.13724C5.03023 6.53518 6.30184 5.23645 7.87046 5.23645C9.43908 5.23645 10.7107 6.53518 10.7107 8.13724C10.7107 9.7393 9.43908 11.038 7.87046 11.038C6.30184 11.038 5.03023 9.7393 5.03023 8.13724Z" fill="black"/>
<path fill-rule="evenodd" clip-rule="evenodd" d="M0.681213 7.13526C0.981525 3.41427 4.02607 0.550568 7.68174 0.550568H8.05922C11.7149 0.550568 14.7594 3.41427 15.0597 7.13526C15.2214 9.13867 14.6155 11.128 13.3696 12.6842L9.18087 17.9161C8.50361 18.762 7.23736 18.7621 6.56009 17.9161L2.37135 12.6842C1.12545 11.128 0.519522 9.13867 0.681213 7.13526ZM7.87046 3.89763C5.57787 3.89763 3.71935 5.79577 3.71935 8.13724C3.71935 10.4787 5.57787 12.3769 7.87046 12.3769C10.1631 12.3769 12.0216 10.4787 12.0216 8.13724C12.0216 5.79577 10.1631 3.89763 7.87046 3.89763Z" fill="black"/>
</svg>
