<svg width="21" height="20" viewBox="0 0 21 20" fill="none" xmlns="http://www.w3.org/2000/svg">
<path d="M4.23545 0.0706264C3.39258 -0.0235421 2.52196 -0.0235421 1.6791 0.0706264C1.04435 0.141543 0.529956 0.640961 0.454797 1.28334C0.353935 2.14539 0.353935 3.01626 0.454797 3.87832C0.529956 4.52069 1.04435 5.02011 1.6791 5.09103C2.52196 5.1852 3.39258 5.1852 4.23545 5.09103C4.8702 5.02011 5.38459 4.52069 5.45975 3.87832C5.56061 3.01626 5.56061 2.14539 5.45975 1.28334C5.38459 0.640961 4.8702 0.141543 4.23545 0.0706264Z" fill="black"/>
<path d="M11.6573 0.0706264C10.8145 -0.0235421 9.94384 -0.0235421 9.10097 0.0706264C8.46622 0.141543 7.95183 0.640961 7.87667 1.28334C7.77581 2.14539 7.77581 3.01626 7.87667 3.87832C7.95183 4.52069 8.46622 5.02011 9.10097 5.09103C9.94384 5.1852 10.8145 5.1852 11.6573 5.09103C12.2921 5.02011 12.8065 4.52069 12.8816 3.87832C12.9825 3.01626 12.9825 2.14539 12.8816 1.28334C12.8065 0.640961 12.2921 0.141543 11.6573 0.0706264Z" fill="black"/>
<path d="M19.0792 0.0706264C18.2363 -0.0235421 17.3657 -0.0235421 16.5229 0.0706264C15.8881 0.141543 15.3737 0.640961 15.2986 1.28334C15.1977 2.14539 15.1977 3.01626 15.2986 3.87832C15.3737 4.52069 15.8881 5.02011 16.5229 5.09103C17.3657 5.1852 18.2363 5.1852 19.0792 5.09103C19.714 5.02011 20.2283 4.52069 20.3035 3.87832C20.4044 3.01626 20.4044 2.14539 20.3035 1.28334C20.2283 0.640961 19.714 0.141543 19.0792 0.0706264Z" fill="black"/>
<path d="M4.23545 7.4898C3.39258 7.39563 2.52196 7.39563 1.6791 7.4898C1.04435 7.56072 0.529956 8.06013 0.454797 8.70251C0.353935 9.56457 0.353935 10.4354 0.454797 11.2975C0.529956 11.9399 1.04435 12.4393 1.6791 12.5102C2.52196 12.6044 3.39258 12.6044 4.23545 12.5102C4.8702 12.4393 5.38459 11.9399 5.45975 11.2975C5.56061 10.4354 5.56061 9.56457 5.45975 8.70251C5.38459 8.06013 4.8702 7.56072 4.23545 7.4898Z" fill="black"/>
<path d="M11.6573 7.4898C10.8145 7.39563 9.94384 7.39563 9.10097 7.4898C8.46622 7.56072 7.95183 8.06013 7.87667 8.70251C7.77581 9.56457 7.77581 10.4354 7.87667 11.2975C7.95183 11.9399 8.46622 12.4393 9.10097 12.5102C9.94384 12.6044 10.8145 12.6044 11.6573 12.5102C12.2921 12.4393 12.8065 11.9399 12.8816 11.2975C12.9825 10.4354 12.9825 9.56457 12.8816 8.70251C12.8065 8.06013 12.2921 7.56072 11.6573 7.4898Z" fill="black"/>
<path d="M19.0792 7.4898C18.2363 7.39563 17.3657 7.39563 16.5229 7.4898C15.8881 7.56072 15.3737 8.06013 15.2986 8.70251C15.1977 9.56457 15.1977 10.4354 15.2986 11.2975C15.3737 11.9399 15.8881 12.4393 16.5229 12.5102C17.3657 12.6044 18.2363 12.6044 19.0792 12.5102C19.714 12.4393 20.2283 11.9399 20.3035 11.2975C20.4044 10.4354 20.4044 9.56457 20.3035 8.70251C20.2283 8.06013 19.714 7.56072 19.0792 7.4898Z" fill="black"/>
<path d="M4.23545 14.909C3.39258 14.8148 2.52196 14.8148 1.6791 14.909C1.04435 14.9799 0.529956 15.4793 0.454797 16.1217C0.353935 16.9837 0.353935 17.8546 0.454797 18.7167C0.529956 19.359 1.04435 19.8585 1.6791 19.9294C2.52196 20.0235 3.39258 20.0235 4.23545 19.9294C4.8702 19.8585 5.38459 19.359 5.45975 18.7167C5.56061 17.8546 5.56061 16.9837 5.45975 16.1217C5.38459 15.4793 4.8702 14.9799 4.23545 14.909Z" fill="black"/>
<path d="M11.6573 14.909C10.8145 14.8148 9.94384 14.8148 9.10097 14.909C8.46622 14.9799 7.95183 15.4793 7.87667 16.1217C7.77581 16.9837 7.77581 17.8546 7.87667 18.7167C7.95183 19.359 8.46622 19.8585 9.10097 19.9294C9.94384 20.0235 10.8145 20.0235 11.6573 19.9294C12.2921 19.8585 12.8065 19.359 12.8816 18.7167C12.9825 17.8546 12.9825 16.9837 12.8816 16.1217C12.8065 15.4793 12.2921 14.9799 11.6573 14.909Z" fill="black"/>
<path d="M19.0792 14.909C18.2363 14.8148 17.3657 14.8148 16.5229 14.909C15.8881 14.9799 15.3737 15.4793 15.2986 16.1217C15.1977 16.9837 15.1977 17.8546 15.2986 18.7167C15.3737 19.359 15.8881 19.8585 16.5229 19.9294C17.3657 20.0235 18.2363 20.0235 19.0792 19.9294C19.714 19.8585 20.2283 19.359 20.3035 18.7167C20.4044 17.8546 20.4044 16.9837 20.3035 16.1217C20.2283 15.4793 19.714 14.9799 19.0792 14.909Z" fill="black"/>
</svg>
