<svg width="16" height="15" viewBox="0 0 16 15" fill="none" xmlns="http://www.w3.org/2000/svg">
<path d="M1.38551 6.13099C3.06481 9.68162 6.05294 12.5046 9.76798 14.035L10.3635 14.2925C11.726 14.8818 13.3276 14.4341 14.1586 13.2317L14.9368 12.1056C15.1898 11.7395 15.1128 11.2464 14.7593 10.9696L12.1201 8.90265C11.7324 8.59906 11.1624 8.66977 10.8659 9.05824L10.0494 10.1278C7.95438 9.12452 6.25347 7.47332 5.22003 5.43952L6.32174 4.64693C6.7219 4.35904 6.79475 3.80566 6.48201 3.42934L4.35276 0.867155C4.06766 0.524094 3.55985 0.449263 3.18273 0.694741L2.01479 1.45499C0.768411 2.26628 0.309782 3.83395 0.930831 5.16011L1.38482 6.12955L1.38551 6.13099Z" fill="black"/>
</svg>
