<svg width="22" height="20" viewBox="0 0 22 20" fill="none" xmlns="http://www.w3.org/2000/svg">
<path fill-rule="evenodd" clip-rule="evenodd" d="M11.3636 0.604153C11.1145 0.532627 10.8517 0.532693 10.6025 0.604429C10.072 0.757172 9.53645 0.898641 8.99905 1.04059C6.60089 1.67408 3.96037 2.37158 1.7016 4.23637L0.636614 5.1156C-0.212625 5.81672 -0.212178 7.18979 0.637797 7.89019L1.68555 8.75356C2.45961 9.3914 3.26632 9.89034 4.09302 10.2972V15.0893C4.09302 16.2625 4.80441 17.3156 5.88485 17.7417L9.97787 19.3561C10.6352 19.6154 11.3648 19.6154 12.0221 19.3561L16.1151 17.7417C17.1956 17.3156 17.907 16.2625 17.907 15.0893V10.3058C18.7282 9.90108 19.5295 9.40467 20.2984 8.76992L20.4651 8.63229V13.7498C20.4651 14.1786 20.8087 14.5262 21.2326 14.5262C21.6564 14.5262 22 14.1786 22 13.7498V6.50315C21.9998 5.98469 21.7872 5.46631 21.3622 5.11611L20.3144 4.25274C18.0392 2.37792 15.2878 1.6519 12.9638 1.03871C12.4276 0.897218 11.8932 0.756195 11.3636 0.604153ZM7.21308 10.4497C6.8244 10.2787 6.37228 10.4588 6.20323 10.852C6.03418 11.2452 6.21222 11.7027 6.60089 11.8737C7.90846 12.4491 9.26199 12.9198 10.6491 13.28C10.8908 13.3427 11.1444 13.3427 11.3861 13.2797C12.7695 12.9195 14.119 12.4487 15.4224 11.8733C15.8108 11.7018 15.9883 11.2442 15.8188 10.8512C15.6493 10.4581 15.197 10.2786 14.8085 10.4501C13.5841 10.9906 12.3165 11.4332 11.0171 11.7723C9.71377 11.4331 8.44191 10.9904 7.21308 10.4497Z" fill="black"/>
</svg>
