<svg width="21" height="12" viewBox="0 0 21 12" fill="none" xmlns="http://www.w3.org/2000/svg">
<path d="M19.4515 11.5492H17.3077C16.4966 11.5492 16.2527 10.9282 14.798 9.55297C13.5285 8.3958 12.9922 8.25133 12.6704 8.25133C12.2267 8.25133 12.1047 8.36663 12.1047 8.94591V10.7685C12.1047 11.2616 11.9357 11.5506 10.5736 11.5506C9.25173 11.4666 7.96984 11.0869 6.83355 10.4428C5.69726 9.79864 4.73909 8.90851 4.03797 7.8457C2.37344 5.88699 1.21526 3.58813 0.655518 1.13192C0.655518 0.827699 0.777474 0.552647 1.39019 0.552647H3.53251C4.08351 0.552647 4.28188 0.784636 4.49787 1.31946C5.53817 4.21445 7.31315 6.7316 8.03313 6.7316C8.30937 6.7316 8.42986 6.6163 8.42986 5.96479V2.98366C8.33876 1.62368 7.5747 1.50838 7.5747 1.01662C7.58451 0.886917 7.64738 0.765927 7.74997 0.679309C7.85256 0.592691 7.98681 0.547259 8.12423 0.552647H11.492C11.9519 0.552647 12.1047 0.769355 12.1047 1.29029V5.31327C12.1047 5.74808 12.3031 5.89255 12.4412 5.89255C12.7174 5.89255 12.9305 5.74808 13.4359 5.27021C14.5216 4.01851 15.4086 2.62398 16.069 1.13054C16.1365 0.951145 16.2643 0.79756 16.4327 0.693219C16.6012 0.588878 16.8011 0.53951 17.0021 0.552647H19.1458C19.7879 0.552647 19.9246 0.856872 19.7879 1.29029C19.0084 2.9412 18.0439 4.50832 16.911 5.96479C16.6803 6.29818 16.5877 6.47183 16.911 6.86218C17.124 7.1664 17.8749 7.75957 18.3803 8.32357C19.1148 9.01626 19.7248 9.81769 20.1861 10.6962C20.3698 11.2602 20.0627 11.5492 19.4515 11.5492Z" fill="black"/>
</svg>
